<?xml version="1.0" encoding="UTF-8" standalone="no"?>
<svg
   xmlns:dc="http://purl.org/dc/elements/1.1/"
   xmlns:cc="http://creativecommons.org/ns#"
   xmlns:rdf="http://www.w3.org/1999/02/22-rdf-syntax-ns#"
   xmlns:svg="http://www.w3.org/2000/svg"
   xmlns="http://www.w3.org/2000/svg"
   version="1.1"
   width="270"
   height="270">
  <defs>
    <radialGradient
       cx="195"
       cy="136"
       r="87"
       id="radialGradient1"
       gradientUnits="userSpaceOnUse"
       gradientTransform="matrix(1,0,0,4.8326141,0,-522.64592)">
      <stop
         style="stop-color:#d27600"
         offset="0" />
      <stop
         style="stop-color:#6e3e00"
         offset="1" />
    </radialGradient>
    <radialGradient
       cx="316.7"
       cy="732.8"
       r="31.35"
       id="radialGradient2"
       gradientUnits="userSpaceOnUse"
       gradientTransform="matrix(-1.0764186e-6,-2.0585884,3.3500569,-1.7517166e-6,-2268.9724,819.72938)">
      <stop
         style="stop-color:#614f20"
         offset="0" />
      <stop
         style="stop-color:#ecd7a0"
         offset="1" />
    </radialGradient>
    <radialGradient
       cx="279.1"
       cy="648.8"
       r="63.73"
       id="radialGradient3"
       gradientUnits="userSpaceOnUse"
       gradientTransform="matrix(-3.7222288,-0.03950243,0.02146961,-2.028684,1176.5453,1376.0525)">
      <stop
         style="stop-color:#ff9955"
         offset="0" />
      <stop
         style="stop-color:#b44800"
         offset="0.4138" />
      <stop
         style="stop-color:#b23a04"
         offset="0.5625" />
      <stop
         style="stop-color:#b02c08"
         offset="0.7956" />
      <stop
         style="stop-color:#ad1010"
         offset="0.8642" />
      <stop
         style="stop-color:#b44800"
         offset="1" />
    </radialGradient>
  </defs>
  <path
     d="m 115.6,276 c 12.56,-9.188 30.97,-15.24 59.18,-19.71 26.75,-4.237 37.97,0.473 46.93,26.41 l 18.28,-1.104 c -6.053,-27.36 24.48,-28.79 40.18,-27.46 l 0.5,-17.9 c -20.8,-1.062 -18.7,-211.8 -18.2,-246.2 h -92.78 c -0.574,78.3 -0.5152,221.5 -19.87,250.9 -7.451,11.32 -22.95,13.32 -40.3,25.92"
     style="fill:url(#radialGradient1);stroke:#000;stroke-width:4" />
  <path
     d="m 15.98,157.8 c 71.71,22.07 131.6,73.49 150.7,58.24 8.089,-6.458 23.43,-28.37 39.7,-53.86"
     style="fill:url(#radialGradient2);stroke:#000;stroke-width:4" />
  <path
     d="m 161.4,50.28 c -29.14,6.526 -44.22,42.93 -155,94.28 -24.97,11.58 75.01,35.96 162.9,34.71 87.84,-1.249 47.44,-23.72 36.11,-40.78 -37.2,-56.1 -15.9,-94.51 -44,-88.22 z"
     style="fill:url(#radialGradient3);stroke:#000;stroke-width:4" />
  <ellipse
     cx="210"
     cy="-272"
     rx="315"
     ry="304"
     style="fill:#18aa00;stroke:#000;stroke-width:3" />
</svg>